<svg width="249" height="48" viewBox="0 0 249 48" fill="none" xmlns="http://www.w3.org/2000/svg">
<path d="M9.738 19.26C7.77933 19.26 6.08067 18.8873 4.642 18.142C3.20333 17.3967 2.10267 16.322 1.34 14.918C0.577333 13.514 0.196 11.85 0.196 9.926C0.196 8.002 0.577333 6.338 1.34 4.934C2.10267 3.51267 3.19467 2.42933 4.616 1.684C6.05467 0.921333 7.74467 0.539999 9.686 0.539999C11.298 0.539999 12.7887 0.817332 14.158 1.372C15.5273 1.92667 16.5413 2.66333 17.2 3.582C17.408 3.85933 17.512 4.14533 17.512 4.44C17.512 4.87333 17.278 5.26333 16.81 5.61C16.602 5.766 16.342 5.844 16.03 5.844C15.77 5.844 15.51 5.792 15.25 5.688C14.99 5.56667 14.7733 5.402 14.6 5.194C14.0107 4.518 13.326 4.03267 12.546 3.738C11.766 3.426 10.8127 3.27 9.686 3.27C7.79667 3.27 6.32333 3.85933 5.266 5.038C4.20867 6.19933 3.68 7.82867 3.68 9.926C3.68 12.006 4.20867 13.6267 5.266 14.788C6.34067 15.9493 7.83133 16.53 9.738 16.53C11.922 16.53 13.664 15.8887 14.964 14.606C15.5013 14.1033 15.9953 13.852 16.446 13.852C16.758 13.852 17.044 13.956 17.304 14.164C17.7027 14.5107 17.902 14.892 17.902 15.308C17.902 15.62 17.7893 15.9233 17.564 16.218C16.8187 17.1713 15.7527 17.9167 14.366 18.454C12.9967 18.9913 11.454 19.26 9.738 19.26ZM30.0294 19.26C28.0014 19.26 26.2507 18.87 24.7774 18.09C23.3214 17.2927 22.212 16.192 21.4494 14.788C20.6867 13.3667 20.3054 11.7373 20.3054 9.9C20.3054 8.06267 20.6867 6.442 21.4494 5.038C22.212 3.61667 23.3214 2.516 24.7774 1.736C26.2507 0.938666 28.0014 0.539999 30.0294 0.539999C32.0574 0.539999 33.7994 0.938666 35.2554 1.736C36.7287 2.516 37.8467 3.61667 38.6094 5.038C39.372 6.442 39.7534 8.06267 39.7534 9.9C39.7534 11.7373 39.372 13.3667 38.6094 14.788C37.8467 16.192 36.7287 17.2927 35.2554 18.09C33.7994 18.87 32.0574 19.26 30.0294 19.26ZM30.0294 16.53C32.0054 16.53 33.5394 15.9407 34.6314 14.762C35.7234 13.566 36.2694 11.9453 36.2694 9.9C36.2694 7.83733 35.6974 6.21667 34.5534 5.038C33.4267 3.85933 31.832 3.27 29.7694 3.27C27.88 3.27 26.4067 3.87667 25.3494 5.09C24.3094 6.286 23.7894 7.88933 23.7894 9.9C23.7894 11.9453 24.3354 13.566 25.4274 14.762C26.5194 15.9407 28.0534 16.53 30.0294 16.53ZM43.4572 19.26C42.9372 19.26 42.5212 19.1213 42.2092 18.844C41.8972 18.5667 41.7412 18.1853 41.7412 17.7V6.988C41.7412 4.97733 42.3132 3.4 43.4572 2.256C44.6012 1.112 46.1785 0.539999 48.1892 0.539999C49.1598 0.539999 50.0698 0.782666 50.9192 1.268C51.7858 1.736 52.5312 2.412 53.1552 3.296C53.7618 2.39467 54.4898 1.71 55.3392 1.242C56.2058 0.773999 57.1418 0.539999 58.1472 0.539999C60.1578 0.539999 61.7352 1.112 62.8792 2.256C64.0232 3.4 64.5952 4.97733 64.5952 6.988V17.7C64.5952 18.168 64.4305 18.5493 64.1012 18.844C63.7892 19.1213 63.3732 19.26 62.8532 19.26C62.3332 19.26 61.9172 19.1213 61.6052 18.844C61.2932 18.5667 61.1372 18.1853 61.1372 17.7V6.988C61.1372 5.67067 60.8945 4.726 60.4092 4.154C59.9238 3.56467 59.1265 3.27 58.0172 3.27C57.0118 3.27 56.2318 3.59067 55.6772 4.232C55.1398 4.87333 54.8712 5.792 54.8712 6.988V17.7C54.8712 18.1853 54.7152 18.5667 54.4032 18.844C54.0912 19.1213 53.6752 19.26 53.1552 19.26C52.6352 19.26 52.2192 19.1213 51.9072 18.844C51.6125 18.5667 51.4652 18.1853 51.4652 17.7V6.988C51.4652 5.82667 51.1878 4.91667 50.6332 4.258C50.0785 3.59933 49.3072 3.27 48.3192 3.27C47.2098 3.27 46.4125 3.56467 45.9272 4.154C45.4418 4.726 45.1992 5.67067 45.1992 6.988V17.7C45.1992 18.168 45.0345 18.5493 44.7052 18.844C44.3932 19.1213 43.9772 19.26 43.4572 19.26ZM69.2286 19.26C68.7086 19.26 68.2926 19.1213 67.9806 18.844C67.6686 18.5667 67.5126 18.1853 67.5126 17.7V6.988C67.5126 4.97733 68.0846 3.4 69.2286 2.256C70.3726 1.112 71.95 0.539999 73.9606 0.539999C74.9313 0.539999 75.8413 0.782666 76.6906 1.268C77.5573 1.736 78.3026 2.412 78.9266 3.296C79.5333 2.39467 80.2613 1.71 81.1106 1.242C81.9773 0.773999 82.9133 0.539999 83.9186 0.539999C85.9293 0.539999 87.5066 1.112 88.6506 2.256C89.7946 3.4 90.3666 4.97733 90.3666 6.988V17.7C90.3666 18.168 90.202 18.5493 89.8726 18.844C89.5606 19.1213 89.1446 19.26 88.6246 19.26C88.1046 19.26 87.6886 19.1213 87.3766 18.844C87.0646 18.5667 86.9086 18.1853 86.9086 17.7V6.988C86.9086 5.67067 86.666 4.726 86.1806 4.154C85.6953 3.56467 84.898 3.27 83.7886 3.27C82.7833 3.27 82.0033 3.59067 81.4486 4.232C80.9113 4.87333 80.6426 5.792 80.6426 6.988V17.7C80.6426 18.1853 80.4866 18.5667 80.1746 18.844C79.8626 19.1213 79.4466 19.26 78.9266 19.26C78.4066 19.26 77.9906 19.1213 77.6786 18.844C77.384 18.5667 77.2366 18.1853 77.2366 17.7V6.988C77.2366 5.82667 76.9593 4.91667 76.4046 4.258C75.85 3.59933 75.0786 3.27 74.0906 3.27C72.9813 3.27 72.184 3.56467 71.6986 4.154C71.2133 4.726 70.9706 5.67067 70.9706 6.988V17.7C70.9706 18.168 70.806 18.5493 70.4766 18.844C70.1646 19.1213 69.7486 19.26 69.2286 19.26ZM101.266 19.26C99.6368 19.26 98.2068 18.9307 96.9761 18.272C95.7628 17.6133 94.8181 16.6773 94.1421 15.464C93.4835 14.2333 93.1541 12.786 93.1541 11.122V2.1C93.1541 1.61467 93.3101 1.23333 93.6221 0.956C93.9341 0.678666 94.3501 0.539999 94.8701 0.539999C95.3901 0.539999 95.8061 0.687333 96.1181 0.982C96.4475 1.25933 96.6121 1.632 96.6121 2.1V11.2C96.6121 12.916 97.0195 14.2333 97.8341 15.152C98.6488 16.0707 99.8188 16.53 101.344 16.53C102.852 16.53 104.013 16.0707 104.828 15.152C105.66 14.216 106.076 12.8987 106.076 11.2V2.1C106.076 1.632 106.232 1.25933 106.544 0.982C106.873 0.687333 107.298 0.539999 107.818 0.539999C108.338 0.539999 108.754 0.678666 109.066 0.956C109.378 1.23333 109.534 1.61467 109.534 2.1V11.122C109.534 12.734 109.187 14.1553 108.494 15.386C107.818 16.6167 106.856 17.57 105.608 18.246C104.36 18.922 102.913 19.26 101.266 19.26ZM113.913 19.26C113.393 19.26 112.977 19.1213 112.665 18.844C112.353 18.5667 112.197 18.1853 112.197 17.7V7.898C112.197 5.59267 112.916 3.79 114.355 2.49C115.794 1.19 117.787 0.539999 120.335 0.539999C122.883 0.539999 124.876 1.19 126.315 2.49C127.754 3.79 128.473 5.59267 128.473 7.898V17.7C128.473 18.1853 128.317 18.5667 128.005 18.844C127.693 19.1213 127.277 19.26 126.757 19.26C126.237 19.26 125.812 19.1213 125.483 18.844C125.171 18.5493 125.015 18.168 125.015 17.7V7.82C125.015 6.34667 124.616 5.22 123.819 4.44C123.022 3.66 121.86 3.27 120.335 3.27C118.81 3.27 117.648 3.66 116.851 4.44C116.054 5.22 115.655 6.34667 115.655 7.82V17.7C115.655 18.168 115.49 18.5493 115.161 18.844C114.849 19.1213 114.433 19.26 113.913 19.26ZM133.739 19.26C133.219 19.26 132.803 19.1213 132.491 18.844C132.179 18.5667 132.023 18.1853 132.023 17.7V2.1C132.023 1.61467 132.179 1.23333 132.491 0.956C132.803 0.678666 133.219 0.539999 133.739 0.539999C134.242 0.539999 134.658 0.678666 134.987 0.956C135.316 1.23333 135.481 1.61467 135.481 2.1V17.7C135.481 18.1853 135.316 18.5667 134.987 18.844C134.658 19.1213 134.242 19.26 133.739 19.26ZM146.731 19.26C146.211 19.26 145.795 19.1213 145.483 18.844C145.171 18.5667 145.015 18.1853 145.015 17.7V3.478H139.997C139.494 3.478 139.096 3.36533 138.801 3.14C138.524 2.89733 138.385 2.568 138.385 2.152C138.385 1.71867 138.524 1.38933 138.801 1.164C139.078 0.921332 139.477 0.799999 139.997 0.799999H153.491C154.011 0.799999 154.41 0.921332 154.687 1.164C154.964 1.38933 155.103 1.71867 155.103 2.152C155.103 2.568 154.956 2.89733 154.661 3.14C154.384 3.36533 153.994 3.478 153.491 3.478H148.473V17.7C148.473 18.168 148.308 18.5493 147.979 18.844C147.667 19.1213 147.251 19.26 146.731 19.26ZM171.959 0.539999C172.479 0.539999 172.895 0.678666 173.207 0.956C173.519 1.23333 173.675 1.61467 173.675 2.1V4.83C173.675 7.13533 173.094 9.016 171.933 10.472C170.772 11.9107 169.151 12.786 167.071 13.098V17.7C167.071 18.168 166.906 18.5493 166.577 18.844C166.265 19.1213 165.849 19.26 165.329 19.26C164.809 19.26 164.393 19.1213 164.081 18.844C163.769 18.5667 163.613 18.1853 163.613 17.7V13.098C161.516 12.786 159.886 11.9107 158.725 10.472C157.564 9.03333 156.983 7.15267 156.983 4.83V2.1C156.983 1.61467 157.139 1.23333 157.451 0.956C157.763 0.678666 158.179 0.539999 158.699 0.539999C159.219 0.539999 159.635 0.687333 159.947 0.982C160.276 1.25933 160.441 1.632 160.441 2.1V4.908C160.441 6.71067 160.857 8.09733 161.689 9.068C162.538 10.0213 163.752 10.498 165.329 10.498C166.906 10.498 168.111 10.0213 168.943 9.068C169.792 8.09733 170.217 6.71067 170.217 4.908V2.1C170.217 1.632 170.373 1.25933 170.685 0.982C171.014 0.687333 171.439 0.539999 171.959 0.539999ZM9.244 47.26C7.54533 47.26 5.95067 46.9827 4.46 46.428C2.96933 45.856 1.678 45.0413 0.586 43.984C0.326 43.724 0.196 43.4293 0.196 43.1C0.196 42.7187 0.369333 42.3547 0.716 42.008C0.993333 41.7307 1.29667 41.592 1.626 41.592C1.97267 41.592 2.38867 41.7913 2.874 42.19C3.68867 42.9353 4.65067 43.516 5.76 43.932C6.88667 44.3307 8.048 44.53 9.244 44.53C10.388 44.53 11.2807 44.3393 11.922 43.958C12.5633 43.5593 12.884 43.0047 12.884 42.294C12.884 41.5487 12.5373 40.9507 11.844 40.5C11.1507 40.032 9.972 39.616 8.308 39.252C5.69067 38.68 3.784 37.926 2.588 36.99C1.40933 36.054 0.82 34.8493 0.82 33.376C0.82 32.44 1.132 31.608 1.756 30.88C2.38 30.1347 3.24667 29.5627 4.356 29.164C5.48267 28.748 6.76533 28.54 8.204 28.54C9.816 28.54 11.246 28.8087 12.494 29.346C13.7593 29.866 14.7213 30.6027 15.38 31.556C15.6053 31.92 15.718 32.232 15.718 32.492C15.7007 32.9253 15.484 33.298 15.068 33.61C14.8427 33.766 14.5827 33.844 14.288 33.844C13.7507 33.844 13.3087 33.636 12.962 33.22C12.4593 32.6133 11.7833 32.1367 10.934 31.79C10.102 31.4433 9.192 31.27 8.204 31.27C6.97333 31.27 6.01133 31.4607 5.318 31.842C4.642 32.206 4.304 32.7173 4.304 33.376C4.304 34.0347 4.63333 34.5807 5.292 35.014C5.968 35.43 7.12933 35.8287 8.776 36.21C10.596 36.6433 12.0607 37.1373 13.17 37.692C14.2793 38.2293 15.0853 38.8707 15.588 39.616C16.108 40.3613 16.368 41.254 16.368 42.294C16.368 43.282 16.0733 44.1573 15.484 44.92C14.8947 45.6653 14.0627 46.246 12.988 46.662C11.9133 47.0607 10.6653 47.26 9.244 47.26ZM28.2985 47.26C26.3399 47.26 24.6412 46.8873 23.2025 46.142C21.7639 45.3967 20.6632 44.322 19.9005 42.918C19.1379 41.514 18.7565 39.85 18.7565 37.926C18.7565 36.002 19.1379 34.338 19.9005 32.934C20.6632 31.5127 21.7552 30.4293 23.1765 29.684C24.6152 28.9213 26.3052 28.54 28.2465 28.54C29.8585 28.54 31.3492 28.8173 32.7185 29.372C34.0879 29.9267 35.1019 30.6633 35.7605 31.582C35.9685 31.8593 36.0725 32.1453 36.0725 32.44C36.0725 32.8733 35.8385 33.2633 35.3705 33.61C35.1625 33.766 34.9025 33.844 34.5905 33.844C34.3305 33.844 34.0705 33.792 33.8105 33.688C33.5505 33.5667 33.3339 33.402 33.1605 33.194C32.5712 32.518 31.8865 32.0327 31.1065 31.738C30.3265 31.426 29.3732 31.27 28.2465 31.27C26.3572 31.27 24.8839 31.8593 23.8265 33.038C22.7692 34.1993 22.2405 35.8287 22.2405 37.926C22.2405 40.006 22.7692 41.6267 23.8265 42.788C24.9012 43.9493 26.3919 44.53 28.2985 44.53C30.4825 44.53 32.2245 43.8887 33.5245 42.606C34.0619 42.1033 34.5559 41.852 35.0065 41.852C35.3185 41.852 35.6045 41.956 35.8645 42.164C36.2632 42.5107 36.4625 42.892 36.4625 43.308C36.4625 43.62 36.3499 43.9233 36.1245 44.218C35.3792 45.1713 34.3132 45.9167 32.9265 46.454C31.5572 46.9913 30.0145 47.26 28.2985 47.26ZM41.6219 47.26C41.1019 47.26 40.6859 47.1213 40.3739 46.844C40.0619 46.5667 39.9059 46.1853 39.9059 45.7V30.1C39.9059 29.6147 40.0619 29.2333 40.3739 28.956C40.6859 28.6787 41.1019 28.54 41.6219 28.54C42.1246 28.54 42.5406 28.6787 42.8699 28.956C43.1993 29.2333 43.3639 29.6147 43.3639 30.1V45.7C43.3639 46.1853 43.1993 46.5667 42.8699 46.844C42.5406 47.1213 42.1246 47.26 41.6219 47.26ZM51.2078 47C49.8905 47 48.8678 46.6533 48.1398 45.96C47.4118 45.2667 47.0478 44.296 47.0478 43.048V32.648C47.0478 31.4347 47.3945 30.49 48.0878 29.814C48.7985 29.138 49.7778 28.8 51.0258 28.8H59.1118C59.6318 28.8 60.0305 28.9213 60.3078 29.164C60.5851 29.3893 60.7238 29.7187 60.7238 30.152C60.7238 30.568 60.5765 30.8973 60.2818 31.14C60.0045 31.3653 59.6145 31.478 59.1118 31.478H51.6238C51.2771 31.478 50.9998 31.5907 50.7918 31.816C50.6011 32.0413 50.5058 32.3533 50.5058 32.752V36.366H57.1358C57.6558 36.366 58.0545 36.4873 58.3318 36.73C58.6091 36.9553 58.7478 37.2847 58.7478 37.718C58.7478 38.134 58.6005 38.4633 58.3058 38.706C58.0285 38.9313 57.6385 39.044 57.1358 39.044H50.5058V43.048C50.5058 43.4467 50.6011 43.7587 50.7918 43.984C50.9998 44.2093 51.2771 44.322 51.6238 44.322H59.6838C60.2038 44.322 60.6025 44.4433 60.8798 44.686C61.1571 44.9113 61.2958 45.2407 61.2958 45.674C61.2958 46.09 61.1485 46.4193 60.8538 46.662C60.5765 46.8873 60.1865 47 59.6838 47H51.2078ZM65.544 47.26C65.024 47.26 64.608 47.1213 64.296 46.844C63.984 46.5667 63.828 46.1853 63.828 45.7V35.898C63.828 33.5927 64.5473 31.79 65.986 30.49C67.4246 29.19 69.418 28.54 71.966 28.54C74.514 28.54 76.5073 29.19 77.946 30.49C79.3846 31.79 80.104 33.5927 80.104 35.898V45.7C80.104 46.1853 79.948 46.5667 79.636 46.844C79.324 47.1213 78.908 47.26 78.388 47.26C77.868 47.26 77.4433 47.1213 77.114 46.844C76.802 46.5493 76.646 46.168 76.646 45.7V35.82C76.646 34.3467 76.2473 33.22 75.45 32.44C74.6526 31.66 73.4913 31.27 71.966 31.27C70.4406 31.27 69.2793 31.66 68.482 32.44C67.6846 33.22 67.286 34.3467 67.286 35.82V45.7C67.286 46.168 67.1213 46.5493 66.792 46.844C66.48 47.1213 66.064 47.26 65.544 47.26ZM91.9021 47.26C89.9434 47.26 88.2447 46.8873 86.8061 46.142C85.3674 45.3967 84.2667 44.322 83.5041 42.918C82.7414 41.514 82.3601 39.85 82.3601 37.926C82.3601 36.002 82.7414 34.338 83.5041 32.934C84.2667 31.5127 85.3587 30.4293 86.7801 29.684C88.2187 28.9213 89.9087 28.54 91.8501 28.54C93.4621 28.54 94.9527 28.8173 96.3221 29.372C97.6914 29.9267 98.7054 30.6633 99.3641 31.582C99.5721 31.8593 99.6761 32.1453 99.6761 32.44C99.6761 32.8733 99.4421 33.2633 98.9741 33.61C98.7661 33.766 98.5061 33.844 98.1941 33.844C97.9341 33.844 97.6741 33.792 97.4141 33.688C97.1541 33.5667 96.9374 33.402 96.7641 33.194C96.1747 32.518 95.4901 32.0327 94.7101 31.738C93.9301 31.426 92.9767 31.27 91.8501 31.27C89.9607 31.27 88.4874 31.8593 87.4301 33.038C86.3727 34.1993 85.8441 35.8287 85.8441 37.926C85.8441 40.006 86.3727 41.6267 87.4301 42.788C88.5047 43.9493 89.9954 44.53 91.9021 44.53C94.0861 44.53 95.8281 43.8887 97.1281 42.606C97.6654 42.1033 98.1594 41.852 98.6101 41.852C98.9221 41.852 99.2081 41.956 99.4681 42.164C99.8667 42.5107 100.066 42.892 100.066 43.308C100.066 43.62 99.9534 43.9233 99.7281 44.218C98.9827 45.1713 97.9167 45.9167 96.5301 46.454C95.1607 46.9913 93.6181 47.26 91.9021 47.26ZM106.889 47C105.572 47 104.549 46.6533 103.821 45.96C103.093 45.2667 102.729 44.296 102.729 43.048V32.648C102.729 31.4347 103.076 30.49 103.769 29.814C104.48 29.138 105.459 28.8 106.707 28.8H114.793C115.313 28.8 115.712 28.9213 115.989 29.164C116.267 29.3893 116.405 29.7187 116.405 30.152C116.405 30.568 116.258 30.8973 115.963 31.14C115.686 31.3653 115.296 31.478 114.793 31.478H107.305C106.959 31.478 106.681 31.5907 106.473 31.816C106.283 32.0413 106.187 32.3533 106.187 32.752V36.366H112.817C113.337 36.366 113.736 36.4873 114.013 36.73C114.291 36.9553 114.429 37.2847 114.429 37.718C114.429 38.134 114.282 38.4633 113.987 38.706C113.71 38.9313 113.32 39.044 112.817 39.044H106.187V43.048C106.187 43.4467 106.283 43.7587 106.473 43.984C106.681 44.2093 106.959 44.322 107.305 44.322H115.365C115.885 44.322 116.284 44.4433 116.561 44.686C116.839 44.9113 116.977 45.2407 116.977 45.674C116.977 46.09 116.83 46.4193 116.535 46.662C116.258 46.8873 115.868 47 115.365 47H106.889ZM128.313 47.26C127.793 47.26 127.377 47.1213 127.065 46.844C126.753 46.5667 126.597 46.1853 126.597 45.7V34.988C126.597 32.9773 127.169 31.4 128.313 30.256C129.457 29.112 131.034 28.54 133.045 28.54C134.015 28.54 134.925 28.7827 135.775 29.268C136.641 29.736 137.387 30.412 138.011 31.296C138.617 30.3947 139.345 29.71 140.195 29.242C141.061 28.774 141.997 28.54 143.003 28.54C145.013 28.54 146.591 29.112 147.735 30.256C148.879 31.4 149.451 32.9773 149.451 34.988V45.7C149.451 46.168 149.286 46.5493 148.957 46.844C148.645 47.1213 148.229 47.26 147.709 47.26C147.189 47.26 146.773 47.1213 146.461 46.844C146.149 46.5667 145.993 46.1853 145.993 45.7V34.988C145.993 33.6707 145.75 32.726 145.265 32.154C144.779 31.5647 143.982 31.27 142.873 31.27C141.867 31.27 141.087 31.5907 140.533 32.232C139.995 32.8733 139.727 33.792 139.727 34.988V45.7C139.727 46.1853 139.571 46.5667 139.259 46.844C138.947 47.1213 138.531 47.26 138.011 47.26C137.491 47.26 137.075 47.1213 136.763 46.844C136.468 46.5667 136.321 46.1853 136.321 45.7V34.988C136.321 33.8267 136.043 32.9167 135.489 32.258C134.934 31.5993 134.163 31.27 133.175 31.27C132.065 31.27 131.268 31.5647 130.783 32.154C130.297 32.726 130.055 33.6707 130.055 34.988V45.7C130.055 46.168 129.89 46.5493 129.561 46.844C129.249 47.1213 128.833 47.26 128.313 47.26ZM160.35 47.26C158.721 47.26 157.291 46.9307 156.06 46.272C154.847 45.6133 153.902 44.6773 153.226 43.464C152.567 42.2333 152.238 40.786 152.238 39.122V30.1C152.238 29.6147 152.394 29.2333 152.706 28.956C153.018 28.6787 153.434 28.54 153.954 28.54C154.474 28.54 154.89 28.6873 155.202 28.982C155.531 29.2593 155.696 29.632 155.696 30.1V39.2C155.696 40.916 156.103 42.2333 156.918 43.152C157.733 44.0707 158.903 44.53 160.428 44.53C161.936 44.53 163.097 44.0707 163.912 43.152C164.744 42.216 165.16 40.8987 165.16 39.2V30.1C165.16 29.632 165.316 29.2593 165.628 28.982C165.957 28.6873 166.382 28.54 166.902 28.54C167.422 28.54 167.838 28.6787 168.15 28.956C168.462 29.2333 168.618 29.6147 168.618 30.1V39.122C168.618 40.734 168.271 42.1553 167.578 43.386C166.902 44.6167 165.94 45.57 164.692 46.246C163.444 46.922 161.997 47.26 160.35 47.26ZM180.199 47.26C178.5 47.26 176.906 46.9827 175.415 46.428C173.924 45.856 172.633 45.0413 171.541 43.984C171.281 43.724 171.151 43.4293 171.151 43.1C171.151 42.7187 171.324 42.3547 171.671 42.008C171.948 41.7307 172.252 41.592 172.581 41.592C172.928 41.592 173.344 41.7913 173.829 42.19C174.644 42.9353 175.606 43.516 176.715 43.932C177.842 44.3307 179.003 44.53 180.199 44.53C181.343 44.53 182.236 44.3393 182.877 43.958C183.518 43.5593 183.839 43.0047 183.839 42.294C183.839 41.5487 183.492 40.9507 182.799 40.5C182.106 40.032 180.927 39.616 179.263 39.252C176.646 38.68 174.739 37.926 173.543 36.99C172.364 36.054 171.775 34.8493 171.775 33.376C171.775 32.44 172.087 31.608 172.711 30.88C173.335 30.1347 174.202 29.5627 175.311 29.164C176.438 28.748 177.72 28.54 179.159 28.54C180.771 28.54 182.201 28.8087 183.449 29.346C184.714 29.866 185.676 30.6027 186.335 31.556C186.56 31.92 186.673 32.232 186.673 32.492C186.656 32.9253 186.439 33.298 186.023 33.61C185.798 33.766 185.538 33.844 185.243 33.844C184.706 33.844 184.264 33.636 183.917 33.22C183.414 32.6133 182.738 32.1367 181.889 31.79C181.057 31.4433 180.147 31.27 179.159 31.27C177.928 31.27 176.966 31.4607 176.273 31.842C175.597 32.206 175.259 32.7173 175.259 33.376C175.259 34.0347 175.588 34.5807 176.247 35.014C176.923 35.43 178.084 35.8287 179.731 36.21C181.551 36.6433 183.016 37.1373 184.125 37.692C185.234 38.2293 186.04 38.8707 186.543 39.616C187.063 40.3613 187.323 41.254 187.323 42.294C187.323 43.282 187.028 44.1573 186.439 44.92C185.85 45.6653 185.018 46.246 183.943 46.662C182.868 47.0607 181.62 47.26 180.199 47.26ZM194.132 47C192.814 47 191.792 46.6533 191.064 45.96C190.336 45.2667 189.972 44.296 189.972 43.048V32.648C189.972 31.4347 190.318 30.49 191.012 29.814C191.722 29.138 192.702 28.8 193.95 28.8H202.036C202.556 28.8 202.954 28.9213 203.232 29.164C203.509 29.3893 203.648 29.7187 203.648 30.152C203.648 30.568 203.5 30.8973 203.206 31.14C202.928 31.3653 202.538 31.478 202.036 31.478H194.548C194.201 31.478 193.924 31.5907 193.716 31.816C193.525 32.0413 193.43 32.3533 193.43 32.752V36.366H200.06C200.58 36.366 200.978 36.4873 201.256 36.73C201.533 36.9553 201.672 37.2847 201.672 37.718C201.672 38.134 201.524 38.4633 201.23 38.706C200.952 38.9313 200.562 39.044 200.06 39.044H193.43V43.048C193.43 43.4467 193.525 43.7587 193.716 43.984C193.924 44.2093 194.201 44.322 194.548 44.322H202.608C203.128 44.322 203.526 44.4433 203.804 44.686C204.081 44.9113 204.22 45.2407 204.22 45.674C204.22 46.09 204.072 46.4193 203.778 46.662C203.5 46.8873 203.11 47 202.608 47H194.132ZM214.864 47.26C213.234 47.26 211.804 46.9307 210.574 46.272C209.36 45.6133 208.416 44.6773 207.74 43.464C207.081 42.2333 206.752 40.786 206.752 39.122V30.1C206.752 29.6147 206.908 29.2333 207.22 28.956C207.532 28.6787 207.948 28.54 208.468 28.54C208.988 28.54 209.404 28.6873 209.716 28.982C210.045 29.2593 210.21 29.632 210.21 30.1V39.2C210.21 40.916 210.617 42.2333 211.432 43.152C212.246 44.0707 213.416 44.53 214.942 44.53C216.45 44.53 217.611 44.0707 218.426 43.152C219.258 42.216 219.674 40.8987 219.674 39.2V30.1C219.674 29.632 219.83 29.2593 220.142 28.982C220.471 28.6873 220.896 28.54 221.416 28.54C221.936 28.54 222.352 28.6787 222.664 28.956C222.976 29.2333 223.132 29.6147 223.132 30.1V39.122C223.132 40.734 222.785 42.1553 222.092 43.386C221.416 44.6167 220.454 45.57 219.206 46.246C217.958 46.922 216.51 47.26 214.864 47.26ZM227.641 47.26C227.121 47.26 226.705 47.1213 226.393 46.844C226.081 46.5667 225.925 46.1853 225.925 45.7V34.988C225.925 32.9773 226.497 31.4 227.641 30.256C228.785 29.112 230.362 28.54 232.373 28.54C233.343 28.54 234.253 28.7827 235.103 29.268C235.969 29.736 236.715 30.412 237.339 31.296C237.945 30.3947 238.673 29.71 239.523 29.242C240.389 28.774 241.325 28.54 242.331 28.54C244.341 28.54 245.919 29.112 247.063 30.256C248.207 31.4 248.779 32.9773 248.779 34.988V45.7C248.779 46.168 248.614 46.5493 248.285 46.844C247.973 47.1213 247.557 47.26 247.037 47.26C246.517 47.26 246.101 47.1213 245.789 46.844C245.477 46.5667 245.321 46.1853 245.321 45.7V34.988C245.321 33.6707 245.078 32.726 244.593 32.154C244.107 31.5647 243.31 31.27 242.201 31.27C241.195 31.27 240.415 31.5907 239.861 32.232C239.323 32.8733 239.055 33.792 239.055 34.988V45.7C239.055 46.1853 238.899 46.5667 238.587 46.844C238.275 47.1213 237.859 47.26 237.339 47.26C236.819 47.26 236.403 47.1213 236.091 46.844C235.796 46.5667 235.649 46.1853 235.649 45.7V34.988C235.649 33.8267 235.371 32.9167 234.817 32.258C234.262 31.5993 233.491 31.27 232.503 31.27C231.393 31.27 230.596 31.5647 230.111 32.154C229.625 32.726 229.383 33.6707 229.383 34.988V45.7C229.383 46.168 229.218 46.5493 228.889 46.844C228.577 47.1213 228.161 47.26 227.641 47.26Z" fill="#333333"/>
</svg>
