<svg width="48" height="48" viewBox="0 0 48 48" fill="none" xmlns="http://www.w3.org/2000/svg">
<path d="M36.4606 9.90761H34.6772V8.12421C34.6772 7.14335 33.8747 6.34082 32.8938 6.34082C31.9129 6.34082 31.1104 7.14335 31.1104 8.12421V9.90761H16.8432V8.12421C16.8432 7.14335 16.0407 6.34082 15.0598 6.34082C14.079 6.34082 13.2765 7.14335 13.2765 8.12421V9.90761H11.4931C9.51349 9.90761 7.9441 11.5127 7.9441 13.4744L7.92627 38.4419C7.92627 40.4037 9.51349 42.0087 11.4931 42.0087H36.4606C38.4223 42.0087 40.0274 40.4037 40.0274 38.4419V13.4744C40.0274 11.5127 38.4223 9.90761 36.4606 9.90761ZM36.4606 36.6585C36.4606 37.6394 35.6581 38.4419 34.6772 38.4419H13.2765C12.2956 38.4419 11.4931 37.6394 11.4931 36.6585V18.8246H36.4606V36.6585ZM15.0598 22.3914H18.6266V25.9582H15.0598V22.3914ZM22.1934 22.3914H25.7602V25.9582H22.1934V22.3914ZM29.327 22.3914H32.8938V25.9582H29.327V22.3914Z" fill="#0487D9"/>
</svg>
