<svg width="48" height="48" viewBox="0 0 48 48" fill="none" xmlns="http://www.w3.org/2000/svg">
<path d="M38.4601 30.5195L33.3801 29.9395C32.1601 29.7995 30.9601 30.2195 30.1001 31.0795L26.4201 34.7595C20.7601 31.8795 16.1201 27.2595 13.2401 21.5795L16.9401 17.8795C17.8001 17.0195 18.2201 15.8195 18.0801 14.5995L17.5001 9.55953C17.2601 7.53953 15.5601 6.01953 13.5201 6.01953H10.0601C7.80008 6.01953 5.92008 7.89953 6.06008 10.1595C7.12008 27.2395 20.7801 40.8795 37.8401 41.9395C40.1001 42.0795 41.9801 40.1995 41.9801 37.9395V34.4795C42.0001 32.4595 40.4801 30.7595 38.4601 30.5195Z" fill="#01359D"/>
</svg>
