<svg width="261" height="51" viewBox="0 0 261 51" fill="none" xmlns="http://www.w3.org/2000/svg">
<path d="M8.912 18.24C7.104 18.24 5.536 17.896 4.208 17.208C2.88 16.52 1.864 15.528 1.16 14.232C0.456 12.936 0.104 11.4 0.104 9.624C0.104 7.848 0.456 6.312 1.16 5.016C1.864 3.704 2.872 2.704 4.184 2.016C5.512 1.312 7.072 0.959999 8.864 0.959999C10.352 0.959999 11.728 1.216 12.992 1.728C14.256 2.24 15.192 2.92 15.8 3.768C15.992 4.024 16.088 4.288 16.088 4.56C16.088 4.96 15.872 5.32 15.44 5.64C15.248 5.784 15.008 5.856 14.72 5.856C14.48 5.856 14.24 5.808 14 5.712C13.76 5.6 13.56 5.448 13.4 5.256C12.856 4.632 12.224 4.184 11.504 3.912C10.784 3.624 9.904 3.48 8.864 3.48C7.12 3.48 5.76 4.024 4.784 5.112C3.808 6.184 3.32 7.688 3.32 9.624C3.32 11.544 3.808 13.04 4.784 14.112C5.776 15.184 7.152 15.72 8.912 15.72C10.928 15.72 12.536 15.128 13.736 13.944C14.232 13.48 14.688 13.248 15.104 13.248C15.392 13.248 15.656 13.344 15.896 13.536C16.264 13.856 16.448 14.208 16.448 14.592C16.448 14.88 16.344 15.16 16.136 15.432C15.448 16.312 14.464 17 13.184 17.496C11.92 17.992 10.496 18.24 8.912 18.24ZM30.0425 18.24C28.1705 18.24 26.5545 17.88 25.1945 17.16C23.8505 16.424 22.8265 15.408 22.1225 14.112C21.4185 12.8 21.0665 11.296 21.0665 9.6C21.0665 7.904 21.4185 6.408 22.1225 5.112C22.8265 3.8 23.8505 2.784 25.1945 2.064C26.5545 1.328 28.1705 0.959999 30.0425 0.959999C31.9145 0.959999 33.5225 1.328 34.8665 2.064C36.2265 2.784 37.2585 3.8 37.9625 5.112C38.6665 6.408 39.0185 7.904 39.0185 9.6C39.0185 11.296 38.6665 12.8 37.9625 14.112C37.2585 15.408 36.2265 16.424 34.8665 17.16C33.5225 17.88 31.9145 18.24 30.0425 18.24ZM30.0425 15.72C31.8665 15.72 33.2825 15.176 34.2905 14.088C35.2985 12.984 35.8025 11.488 35.8025 9.6C35.8025 7.696 35.2745 6.2 34.2185 5.112C33.1785 4.024 31.7065 3.48 29.8025 3.48C28.0585 3.48 26.6985 4.04 25.7225 5.16C24.7625 6.264 24.2825 7.744 24.2825 9.6C24.2825 11.488 24.7865 12.984 25.7945 14.088C26.8025 15.176 28.2185 15.72 30.0425 15.72ZM44.8374 18.24C44.3574 18.24 43.9734 18.112 43.6854 17.856C43.3974 17.6 43.2534 17.248 43.2534 16.8V6.912C43.2534 5.056 43.7814 3.6 44.8374 2.544C45.8934 1.488 47.3494 0.959999 49.2054 0.959999C50.1014 0.959999 50.9414 1.184 51.7254 1.632C52.5254 2.064 53.2134 2.688 53.7894 3.504C54.3494 2.672 55.0214 2.04 55.8054 1.608C56.6054 1.176 57.4694 0.959999 58.3974 0.959999C60.2534 0.959999 61.7094 1.488 62.7654 2.544C63.8214 3.6 64.3494 5.056 64.3494 6.912V16.8C64.3494 17.232 64.1974 17.584 63.8934 17.856C63.6054 18.112 63.2214 18.24 62.7414 18.24C62.2614 18.24 61.8774 18.112 61.5894 17.856C61.3014 17.6 61.1574 17.248 61.1574 16.8V6.912C61.1574 5.696 60.9334 4.824 60.4854 4.296C60.0374 3.752 59.3014 3.48 58.2774 3.48C57.3494 3.48 56.6294 3.776 56.1174 4.368C55.6214 4.96 55.3734 5.808 55.3734 6.912V16.8C55.3734 17.248 55.2294 17.6 54.9414 17.856C54.6534 18.112 54.2694 18.24 53.7894 18.24C53.3094 18.24 52.9254 18.112 52.6374 17.856C52.3654 17.6 52.2294 17.248 52.2294 16.8V6.912C52.2294 5.84 51.9734 5 51.4614 4.392C50.9494 3.784 50.2374 3.48 49.3254 3.48C48.3014 3.48 47.5654 3.752 47.1174 4.296C46.6694 4.824 46.4454 5.696 46.4454 6.912V16.8C46.4454 17.232 46.2934 17.584 45.9894 17.856C45.7014 18.112 45.3174 18.24 44.8374 18.24ZM71.0264 18.24C70.5464 18.24 70.1624 18.112 69.8744 17.856C69.5864 17.6 69.4424 17.248 69.4424 16.8V6.912C69.4424 5.056 69.9704 3.6 71.0264 2.544C72.0824 1.488 73.5384 0.959999 75.3944 0.959999C76.2904 0.959999 77.1304 1.184 77.9144 1.632C78.7144 2.064 79.4024 2.688 79.9784 3.504C80.5384 2.672 81.2104 2.04 81.9944 1.608C82.7944 1.176 83.6584 0.959999 84.5864 0.959999C86.4424 0.959999 87.8984 1.488 88.9544 2.544C90.0104 3.6 90.5384 5.056 90.5384 6.912V16.8C90.5384 17.232 90.3864 17.584 90.0824 17.856C89.7944 18.112 89.4104 18.24 88.9304 18.24C88.4504 18.24 88.0664 18.112 87.7784 17.856C87.4904 17.6 87.3464 17.248 87.3464 16.8V6.912C87.3464 5.696 87.1224 4.824 86.6744 4.296C86.2264 3.752 85.4904 3.48 84.4664 3.48C83.5384 3.48 82.8184 3.776 82.3064 4.368C81.8104 4.96 81.5624 5.808 81.5624 6.912V16.8C81.5624 17.248 81.4184 17.6 81.1304 17.856C80.8424 18.112 80.4584 18.24 79.9784 18.24C79.4984 18.24 79.1144 18.112 78.8264 17.856C78.5544 17.6 78.4184 17.248 78.4184 16.8V6.912C78.4184 5.84 78.1624 5 77.6504 4.392C77.1384 3.784 76.4264 3.48 75.5144 3.48C74.4904 3.48 73.7544 3.752 73.3064 4.296C72.8584 4.824 72.6344 5.696 72.6344 6.912V16.8C72.6344 17.232 72.4824 17.584 72.1784 17.856C71.8904 18.112 71.5064 18.24 71.0264 18.24ZM102.999 18.24C101.495 18.24 100.175 17.936 99.0395 17.328C97.9195 16.72 97.0475 15.856 96.4235 14.736C95.8155 13.6 95.5115 12.264 95.5115 10.728V2.4C95.5115 1.952 95.6555 1.6 95.9435 1.344C96.2315 1.088 96.6155 0.959999 97.0955 0.959999C97.5755 0.959999 97.9595 1.096 98.2475 1.368C98.5515 1.624 98.7035 1.968 98.7035 2.4V10.8C98.7035 12.384 99.0795 13.6 99.8315 14.448C100.583 15.296 101.663 15.72 103.071 15.72C104.463 15.72 105.535 15.296 106.287 14.448C107.055 13.584 107.439 12.368 107.439 10.8V2.4C107.439 1.968 107.583 1.624 107.871 1.368C108.175 1.096 108.567 0.959999 109.047 0.959999C109.527 0.959999 109.911 1.088 110.199 1.344C110.487 1.6 110.631 1.952 110.631 2.4V10.728C110.631 12.216 110.311 13.528 109.671 14.664C109.047 15.8 108.159 16.68 107.007 17.304C105.855 17.928 104.519 18.24 102.999 18.24ZM117.074 18.24C116.594 18.24 116.21 18.112 115.922 17.856C115.634 17.6 115.49 17.248 115.49 16.8V7.752C115.49 5.624 116.154 3.96 117.482 2.76C118.81 1.56 120.65 0.959999 123.002 0.959999C125.354 0.959999 127.194 1.56 128.522 2.76C129.85 3.96 130.514 5.624 130.514 7.752V16.8C130.514 17.248 130.37 17.6 130.082 17.856C129.794 18.112 129.41 18.24 128.93 18.24C128.45 18.24 128.058 18.112 127.754 17.856C127.466 17.584 127.322 17.232 127.322 16.8V7.68C127.322 6.32 126.954 5.28 126.218 4.56C125.482 3.84 124.41 3.48 123.002 3.48C121.594 3.48 120.522 3.84 119.786 4.56C119.05 5.28 118.682 6.32 118.682 7.68V16.8C118.682 17.232 118.53 17.584 118.226 17.856C117.938 18.112 117.554 18.24 117.074 18.24ZM137.775 18.24C137.295 18.24 136.911 18.112 136.623 17.856C136.335 17.6 136.191 17.248 136.191 16.8V2.4C136.191 1.952 136.335 1.6 136.623 1.344C136.911 1.088 137.295 0.959999 137.775 0.959999C138.239 0.959999 138.623 1.088 138.927 1.344C139.231 1.6 139.383 1.952 139.383 2.4V16.8C139.383 17.248 139.231 17.6 138.927 17.856C138.623 18.112 138.239 18.24 137.775 18.24ZM152.167 18.24C151.687 18.24 151.303 18.112 151.015 17.856C150.727 17.6 150.583 17.248 150.583 16.8V3.672H145.951C145.487 3.672 145.119 3.568 144.847 3.36C144.591 3.136 144.463 2.832 144.463 2.448C144.463 2.048 144.591 1.744 144.847 1.536C145.103 1.312 145.471 1.2 145.951 1.2H158.407C158.887 1.2 159.255 1.312 159.511 1.536C159.767 1.744 159.895 2.048 159.895 2.448C159.895 2.832 159.759 3.136 159.487 3.36C159.231 3.568 158.871 3.672 158.407 3.672H153.775V16.8C153.775 17.232 153.623 17.584 153.319 17.856C153.031 18.112 152.647 18.24 152.167 18.24ZM177.855 0.959999C178.335 0.959999 178.719 1.088 179.007 1.344C179.295 1.6 179.439 1.952 179.439 2.4V4.92C179.439 7.048 178.903 8.784 177.831 10.128C176.759 11.456 175.263 12.264 173.343 12.552V16.8C173.343 17.232 173.191 17.584 172.887 17.856C172.599 18.112 172.215 18.24 171.735 18.24C171.255 18.24 170.871 18.112 170.583 17.856C170.295 17.6 170.151 17.248 170.151 16.8V12.552C168.215 12.264 166.711 11.456 165.639 10.128C164.567 8.8 164.031 7.064 164.031 4.92V2.4C164.031 1.952 164.175 1.6 164.463 1.344C164.751 1.088 165.135 0.959999 165.615 0.959999C166.095 0.959999 166.479 1.096 166.767 1.368C167.071 1.624 167.223 1.968 167.223 2.4V4.992C167.223 6.656 167.607 7.936 168.375 8.832C169.159 9.712 170.279 10.152 171.735 10.152C173.191 10.152 174.303 9.712 175.071 8.832C175.855 7.936 176.247 6.656 176.247 4.992V2.4C176.247 1.968 176.391 1.624 176.679 1.368C176.983 1.096 177.375 0.959999 177.855 0.959999ZM8.456 50.24C6.888 50.24 5.416 49.984 4.04 49.472C2.664 48.944 1.472 48.192 0.464 47.216C0.224 46.976 0.104 46.704 0.104 46.4C0.104 46.048 0.264 45.712 0.584 45.392C0.84 45.136 1.12 45.008 1.424 45.008C1.744 45.008 2.128 45.192 2.576 45.56C3.328 46.248 4.216 46.784 5.24 47.168C6.28 47.536 7.352 47.72 8.456 47.72C9.512 47.72 10.336 47.544 10.928 47.192C11.52 46.824 11.816 46.312 11.816 45.656C11.816 44.968 11.496 44.416 10.856 44C10.216 43.568 9.128 43.184 7.592 42.848C5.176 42.32 3.416 41.624 2.312 40.76C1.224 39.896 0.68 38.784 0.68 37.424C0.68 36.56 0.968 35.792 1.544 35.12C2.12 34.432 2.92 33.904 3.944 33.536C4.984 33.152 6.168 32.96 7.496 32.96C8.984 32.96 10.304 33.208 11.456 33.704C12.624 34.184 13.512 34.864 14.12 35.744C14.328 36.08 14.432 36.368 14.432 36.608C14.416 37.008 14.216 37.352 13.832 37.64C13.624 37.784 13.384 37.856 13.112 37.856C12.616 37.856 12.208 37.664 11.888 37.28C11.424 36.72 10.8 36.28 10.016 35.96C9.248 35.64 8.408 35.48 7.496 35.48C6.36 35.48 5.472 35.656 4.832 36.008C4.208 36.344 3.896 36.816 3.896 37.424C3.896 38.032 4.2 38.536 4.808 38.936C5.432 39.32 6.504 39.688 8.024 40.04C9.704 40.44 11.056 40.896 12.08 41.408C13.104 41.904 13.848 42.496 14.312 43.184C14.792 43.872 15.032 44.696 15.032 45.656C15.032 46.568 14.76 47.376 14.216 48.08C13.672 48.768 12.904 49.304 11.912 49.688C10.92 50.056 9.768 50.24 8.456 50.24ZM28.4448 50.24C26.6368 50.24 25.0688 49.896 23.7408 49.208C22.4128 48.52 21.3968 47.528 20.6928 46.232C19.9888 44.936 19.6368 43.4 19.6368 41.624C19.6368 39.848 19.9888 38.312 20.6928 37.016C21.3968 35.704 22.4048 34.704 23.7168 34.016C25.0448 33.312 26.6048 32.96 28.3968 32.96C29.8848 32.96 31.2608 33.216 32.5248 33.728C33.7888 34.24 34.7248 34.92 35.3328 35.768C35.5248 36.024 35.6208 36.288 35.6208 36.56C35.6208 36.96 35.4048 37.32 34.9728 37.64C34.7808 37.784 34.5408 37.856 34.2528 37.856C34.0128 37.856 33.7728 37.808 33.5328 37.712C33.2928 37.6 33.0928 37.448 32.9328 37.256C32.3888 36.632 31.7568 36.184 31.0368 35.912C30.3168 35.624 29.4368 35.48 28.3968 35.48C26.6528 35.48 25.2928 36.024 24.3168 37.112C23.3408 38.184 22.8528 39.688 22.8528 41.624C22.8528 43.544 23.3408 45.04 24.3168 46.112C25.3088 47.184 26.6848 47.72 28.4448 47.72C30.4608 47.72 32.0688 47.128 33.2688 45.944C33.7648 45.48 34.2208 45.248 34.6368 45.248C34.9248 45.248 35.1888 45.344 35.4288 45.536C35.7968 45.856 35.9808 46.208 35.9808 46.592C35.9808 46.88 35.8768 47.16 35.6688 47.432C34.9808 48.312 33.9968 49 32.7168 49.496C31.4528 49.992 30.0288 50.24 28.4448 50.24ZM43.1433 50.24C42.6633 50.24 42.2793 50.112 41.9913 49.856C41.7033 49.6 41.5593 49.248 41.5593 48.8V34.4C41.5593 33.952 41.7033 33.6 41.9913 33.344C42.2793 33.088 42.6633 32.96 43.1433 32.96C43.6073 32.96 43.9913 33.088 44.2953 33.344C44.5993 33.6 44.7513 33.952 44.7513 34.4V48.8C44.7513 49.248 44.5993 49.6 44.2953 49.856C43.9913 50.112 43.6073 50.24 43.1433 50.24ZM54.3918 50C53.1758 50 52.2318 49.68 51.5598 49.04C50.8878 48.4 50.5518 47.504 50.5518 46.352V36.752C50.5518 35.632 50.8718 34.76 51.5118 34.136C52.1678 33.512 53.0718 33.2 54.2238 33.2H61.6878C62.1678 33.2 62.5358 33.312 62.7918 33.536C63.0478 33.744 63.1758 34.048 63.1758 34.448C63.1758 34.832 63.0398 35.136 62.7678 35.36C62.5118 35.568 62.1518 35.672 61.6878 35.672H54.7758C54.4558 35.672 54.1998 35.776 54.0078 35.984C53.8318 36.192 53.7438 36.48 53.7438 36.848V40.184H59.8638C60.3438 40.184 60.7118 40.296 60.9678 40.52C61.2238 40.728 61.3518 41.032 61.3518 41.432C61.3518 41.816 61.2158 42.12 60.9438 42.344C60.6878 42.552 60.3278 42.656 59.8638 42.656H53.7438V46.352C53.7438 46.72 53.8318 47.008 54.0078 47.216C54.1998 47.424 54.4558 47.528 54.7758 47.528H62.2158C62.6958 47.528 63.0638 47.64 63.3198 47.864C63.5758 48.072 63.7038 48.376 63.7038 48.776C63.7038 49.16 63.5678 49.464 63.2958 49.688C63.0398 49.896 62.6798 50 62.2158 50H54.3918ZM70.0252 50.24C69.5452 50.24 69.1612 50.112 68.8732 49.856C68.5852 49.6 68.4412 49.248 68.4412 48.8V39.752C68.4412 37.624 69.1052 35.96 70.4332 34.76C71.7612 33.56 73.6012 32.96 75.9532 32.96C78.3052 32.96 80.1452 33.56 81.4732 34.76C82.8012 35.96 83.4652 37.624 83.4652 39.752V48.8C83.4652 49.248 83.3212 49.6 83.0332 49.856C82.7452 50.112 82.3612 50.24 81.8812 50.24C81.4012 50.24 81.0092 50.112 80.7052 49.856C80.4172 49.584 80.2732 49.232 80.2732 48.8V39.68C80.2732 38.32 79.9052 37.28 79.1692 36.56C78.4332 35.84 77.3612 35.48 75.9532 35.48C74.5452 35.48 73.4732 35.84 72.7372 36.56C72.0012 37.28 71.6332 38.32 71.6332 39.68V48.8C71.6332 49.232 71.4812 49.584 71.1772 49.856C70.8892 50.112 70.5052 50.24 70.0252 50.24ZM96.7558 50.24C94.9478 50.24 93.3798 49.896 92.0518 49.208C90.7238 48.52 89.7078 47.528 89.0038 46.232C88.2998 44.936 87.9478 43.4 87.9478 41.624C87.9478 39.848 88.2998 38.312 89.0038 37.016C89.7078 35.704 90.7158 34.704 92.0278 34.016C93.3558 33.312 94.9158 32.96 96.7078 32.96C98.1958 32.96 99.5718 33.216 100.836 33.728C102.1 34.24 103.036 34.92 103.644 35.768C103.836 36.024 103.932 36.288 103.932 36.56C103.932 36.96 103.716 37.32 103.284 37.64C103.092 37.784 102.852 37.856 102.564 37.856C102.324 37.856 102.084 37.808 101.844 37.712C101.604 37.6 101.404 37.448 101.244 37.256C100.7 36.632 100.068 36.184 99.3478 35.912C98.6278 35.624 97.7478 35.48 96.7078 35.48C94.9638 35.48 93.6038 36.024 92.6278 37.112C91.6518 38.184 91.1638 39.688 91.1638 41.624C91.1638 43.544 91.6518 45.04 92.6278 46.112C93.6198 47.184 94.9958 47.72 96.7558 47.72C98.7718 47.72 100.38 47.128 101.58 45.944C102.076 45.48 102.532 45.248 102.948 45.248C103.236 45.248 103.5 45.344 103.74 45.536C104.108 45.856 104.292 46.208 104.292 46.592C104.292 46.88 104.188 47.16 103.98 47.432C103.292 48.312 102.308 49 101.028 49.496C99.7638 49.992 98.3398 50.24 96.7558 50.24ZM112.99 50C111.774 50 110.83 49.68 110.158 49.04C109.486 48.4 109.15 47.504 109.15 46.352V36.752C109.15 35.632 109.47 34.76 110.11 34.136C110.766 33.512 111.67 33.2 112.822 33.2H120.286C120.766 33.2 121.134 33.312 121.39 33.536C121.646 33.744 121.774 34.048 121.774 34.448C121.774 34.832 121.638 35.136 121.366 35.36C121.11 35.568 120.75 35.672 120.286 35.672H113.374C113.054 35.672 112.798 35.776 112.606 35.984C112.43 36.192 112.342 36.48 112.342 36.848V40.184H118.462C118.942 40.184 119.31 40.296 119.566 40.52C119.822 40.728 119.95 41.032 119.95 41.432C119.95 41.816 119.814 42.12 119.542 42.344C119.286 42.552 118.926 42.656 118.462 42.656H112.342V46.352C112.342 46.72 112.43 47.008 112.606 47.216C112.798 47.424 113.054 47.528 113.374 47.528H120.814C121.294 47.528 121.662 47.64 121.918 47.864C122.174 48.072 122.302 48.376 122.302 48.776C122.302 49.16 122.166 49.464 121.894 49.688C121.638 49.896 121.278 50 120.814 50H112.99ZM137.565 50.24C137.085 50.24 136.701 50.112 136.413 49.856C136.125 49.6 135.981 49.248 135.981 48.8V38.912C135.981 37.056 136.509 35.6 137.565 34.544C138.621 33.488 140.077 32.96 141.933 32.96C142.829 32.96 143.669 33.184 144.453 33.632C145.253 34.064 145.941 34.688 146.517 35.504C147.077 34.672 147.749 34.04 148.533 33.608C149.333 33.176 150.197 32.96 151.125 32.96C152.981 32.96 154.437 33.488 155.493 34.544C156.549 35.6 157.077 37.056 157.077 38.912V48.8C157.077 49.232 156.925 49.584 156.621 49.856C156.333 50.112 155.949 50.24 155.469 50.24C154.989 50.24 154.605 50.112 154.317 49.856C154.029 49.6 153.885 49.248 153.885 48.8V38.912C153.885 37.696 153.661 36.824 153.213 36.296C152.765 35.752 152.029 35.48 151.005 35.48C150.077 35.48 149.357 35.776 148.845 36.368C148.349 36.96 148.101 37.808 148.101 38.912V48.8C148.101 49.248 147.957 49.6 147.669 49.856C147.381 50.112 146.997 50.24 146.517 50.24C146.037 50.24 145.653 50.112 145.365 49.856C145.093 49.6 144.957 49.248 144.957 48.8V38.912C144.957 37.84 144.701 37 144.189 36.392C143.677 35.784 142.965 35.48 142.053 35.48C141.029 35.48 140.293 35.752 139.845 36.296C139.397 36.824 139.173 37.696 139.173 38.912V48.8C139.173 49.232 139.021 49.584 138.717 49.856C138.429 50.112 138.045 50.24 137.565 50.24ZM169.539 50.24C168.035 50.24 166.715 49.936 165.579 49.328C164.459 48.72 163.587 47.856 162.963 46.736C162.355 45.6 162.051 44.264 162.051 42.728V34.4C162.051 33.952 162.195 33.6 162.483 33.344C162.771 33.088 163.155 32.96 163.635 32.96C164.115 32.96 164.499 33.096 164.787 33.368C165.091 33.624 165.243 33.968 165.243 34.4V42.8C165.243 44.384 165.619 45.6 166.371 46.448C167.123 47.296 168.203 47.72 169.611 47.72C171.003 47.72 172.075 47.296 172.827 46.448C173.595 45.584 173.979 44.368 173.979 42.8V34.4C173.979 33.968 174.123 33.624 174.411 33.368C174.715 33.096 175.107 32.96 175.587 32.96C176.067 32.96 176.451 33.088 176.739 33.344C177.027 33.6 177.171 33.952 177.171 34.4V42.728C177.171 44.216 176.851 45.528 176.211 46.664C175.587 47.8 174.699 48.68 173.547 49.304C172.395 49.928 171.059 50.24 169.539 50.24ZM190.261 50.24C188.693 50.24 187.221 49.984 185.845 49.472C184.469 48.944 183.277 48.192 182.269 47.216C182.029 46.976 181.909 46.704 181.909 46.4C181.909 46.048 182.069 45.712 182.389 45.392C182.645 45.136 182.925 45.008 183.229 45.008C183.549 45.008 183.933 45.192 184.381 45.56C185.133 46.248 186.021 46.784 187.045 47.168C188.085 47.536 189.157 47.72 190.261 47.72C191.317 47.72 192.141 47.544 192.733 47.192C193.325 46.824 193.621 46.312 193.621 45.656C193.621 44.968 193.301 44.416 192.661 44C192.021 43.568 190.933 43.184 189.397 42.848C186.981 42.32 185.221 41.624 184.117 40.76C183.029 39.896 182.485 38.784 182.485 37.424C182.485 36.56 182.773 35.792 183.349 35.12C183.925 34.432 184.725 33.904 185.749 33.536C186.789 33.152 187.973 32.96 189.301 32.96C190.789 32.96 192.109 33.208 193.261 33.704C194.429 34.184 195.317 34.864 195.925 35.744C196.133 36.08 196.237 36.368 196.237 36.608C196.221 37.008 196.021 37.352 195.637 37.64C195.429 37.784 195.189 37.856 194.917 37.856C194.421 37.856 194.013 37.664 193.693 37.28C193.229 36.72 192.605 36.28 191.821 35.96C191.053 35.64 190.213 35.48 189.301 35.48C188.165 35.48 187.277 35.656 186.637 36.008C186.013 36.344 185.701 36.816 185.701 37.424C185.701 38.032 186.005 38.536 186.613 38.936C187.237 39.32 188.309 39.688 189.829 40.04C191.509 40.44 192.861 40.896 193.885 41.408C194.909 41.904 195.653 42.496 196.117 43.184C196.597 43.872 196.837 44.696 196.837 45.656C196.837 46.568 196.565 47.376 196.021 48.08C195.477 48.768 194.709 49.304 193.717 49.688C192.725 50.056 191.573 50.24 190.261 50.24ZM205.521 50C204.305 50 203.361 49.68 202.689 49.04C202.017 48.4 201.681 47.504 201.681 46.352V36.752C201.681 35.632 202.001 34.76 202.641 34.136C203.297 33.512 204.201 33.2 205.353 33.2H212.817C213.297 33.2 213.665 33.312 213.921 33.536C214.177 33.744 214.305 34.048 214.305 34.448C214.305 34.832 214.169 35.136 213.897 35.36C213.641 35.568 213.281 35.672 212.817 35.672H205.905C205.585 35.672 205.329 35.776 205.137 35.984C204.961 36.192 204.873 36.48 204.873 36.848V40.184H210.993C211.473 40.184 211.841 40.296 212.097 40.52C212.353 40.728 212.481 41.032 212.481 41.432C212.481 41.816 212.345 42.12 212.073 42.344C211.817 42.552 211.457 42.656 210.993 42.656H204.873V46.352C204.873 46.72 204.961 47.008 205.137 47.216C205.329 47.424 205.585 47.528 205.905 47.528H213.345C213.825 47.528 214.193 47.64 214.449 47.864C214.705 48.072 214.833 48.376 214.833 48.776C214.833 49.16 214.697 49.464 214.425 49.688C214.169 49.896 213.809 50 213.345 50H205.521ZM227.059 50.24C225.555 50.24 224.235 49.936 223.099 49.328C221.979 48.72 221.107 47.856 220.483 46.736C219.875 45.6 219.571 44.264 219.571 42.728V34.4C219.571 33.952 219.715 33.6 220.003 33.344C220.291 33.088 220.675 32.96 221.155 32.96C221.635 32.96 222.019 33.096 222.307 33.368C222.611 33.624 222.763 33.968 222.763 34.4V42.8C222.763 44.384 223.139 45.6 223.891 46.448C224.643 47.296 225.723 47.72 227.131 47.72C228.523 47.72 229.595 47.296 230.347 46.448C231.115 45.584 231.499 44.368 231.499 42.8V34.4C231.499 33.968 231.643 33.624 231.931 33.368C232.235 33.096 232.627 32.96 233.107 32.96C233.587 32.96 233.971 33.088 234.259 33.344C234.547 33.6 234.691 33.952 234.691 34.4V42.728C234.691 44.216 234.371 45.528 233.731 46.664C233.107 47.8 232.219 48.68 231.067 49.304C229.915 49.928 228.579 50.24 227.059 50.24ZM241.253 50.24C240.773 50.24 240.389 50.112 240.101 49.856C239.813 49.6 239.669 49.248 239.669 48.8V38.912C239.669 37.056 240.197 35.6 241.253 34.544C242.309 33.488 243.765 32.96 245.621 32.96C246.517 32.96 247.357 33.184 248.141 33.632C248.941 34.064 249.629 34.688 250.205 35.504C250.765 34.672 251.437 34.04 252.221 33.608C253.021 33.176 253.885 32.96 254.813 32.96C256.669 32.96 258.125 33.488 259.181 34.544C260.237 35.6 260.765 37.056 260.765 38.912V48.8C260.765 49.232 260.613 49.584 260.309 49.856C260.021 50.112 259.637 50.24 259.157 50.24C258.677 50.24 258.293 50.112 258.005 49.856C257.717 49.6 257.573 49.248 257.573 48.8V38.912C257.573 37.696 257.349 36.824 256.901 36.296C256.453 35.752 255.717 35.48 254.693 35.48C253.765 35.48 253.045 35.776 252.533 36.368C252.037 36.96 251.789 37.808 251.789 38.912V48.8C251.789 49.248 251.645 49.6 251.357 49.856C251.069 50.112 250.685 50.24 250.205 50.24C249.725 50.24 249.341 50.112 249.053 49.856C248.781 49.6 248.645 49.248 248.645 48.8V38.912C248.645 37.84 248.389 37 247.877 36.392C247.365 35.784 246.653 35.48 245.741 35.48C244.717 35.48 243.981 35.752 243.533 36.296C243.085 36.824 242.861 37.696 242.861 38.912V48.8C242.861 49.232 242.709 49.584 242.405 49.856C242.117 50.112 241.733 50.24 241.253 50.24Z" fill="#FF7400"/>
</svg>
